<svg width="147" height="18" viewBox="0 0 147 18" fill="none" xmlns="http://www.w3.org/2000/svg">
<path d="M0.04 1.64H6.04V17H0.04V1.64ZM8.55813 5.24H22.6701V8.84H8.55813V5.24ZM12.7341 1.64H18.4941V17H12.7341V1.64ZM24.2284 5.24H29.9884V17H24.2284V5.24ZM36.1804 9.68C35.1404 9.68 34.1884 9.776 33.3244 9.968C32.4604 10.16 31.7244 10.392 31.1164 10.664C30.5084 10.92 30.0524 11.176 29.7484 11.432L29.7004 10.28C29.7484 9.944 29.8764 9.552 30.0844 9.104C30.2924 8.64 30.5724 8.168 30.9244 7.688C31.2764 7.192 31.7084 6.736 32.2204 6.32C32.7324 5.888 33.3164 5.544 33.9724 5.288C34.6444 5.016 35.3804 4.88 36.1804 4.88V9.68ZM53.9759 12.776H59.6399C59.4959 13.704 59.0319 14.512 58.2479 15.2C57.4799 15.888 56.3519 16.424 54.8639 16.808C53.3919 17.176 51.5119 17.36 49.2239 17.36C46.8079 17.36 44.7199 17.168 42.9599 16.784C41.2159 16.4 39.8719 15.752 38.9279 14.84C37.9839 13.928 37.5119 12.696 37.5119 11.144C37.5119 9.608 37.9679 8.384 38.8799 7.472C39.8079 6.544 41.1439 5.88 42.8879 5.48C44.6319 5.08 46.7439 4.88 49.2239 4.88C51.6559 4.88 53.6479 5.096 55.1999 5.528C56.7519 5.96 57.8959 6.664 58.6319 7.64C59.3679 8.6 59.7199 9.904 59.6879 11.552H43.3679C43.4479 11.968 43.6719 12.352 44.0399 12.704C44.4239 13.056 45.0079 13.344 45.7919 13.568C46.5919 13.776 47.6559 13.88 48.9839 13.88C50.3599 13.88 51.4879 13.784 52.3679 13.592C53.2639 13.4 53.7999 13.128 53.9759 12.776ZM48.9839 8.36C47.2879 8.36 45.9919 8.544 45.0959 8.912C44.2159 9.28 43.6959 9.648 43.5359 10.016H54.0959C53.9839 9.6 53.5359 9.224 52.7519 8.888C51.9679 8.536 50.7119 8.36 48.9839 8.36ZM83.5473 11.888C83.5473 13.04 83.1873 14.024 82.4673 14.84C81.7473 15.656 80.6113 16.28 79.0593 16.712C77.5073 17.144 75.4913 17.36 73.0113 17.36C70.5313 17.36 68.4193 17.16 66.6753 16.76C64.9473 16.36 63.6273 15.704 62.7153 14.792C61.8193 13.88 61.3713 12.664 61.3713 11.144C61.3713 9.624 61.8193 8.408 62.7153 7.496C63.6273 6.568 64.9473 5.904 66.6753 5.504C68.4193 5.088 70.5313 4.88 73.0113 4.88C75.4913 4.88 77.4993 5.096 79.0353 5.528C80.5713 5.96 81.6993 6.584 82.4193 7.4C83.1393 8.216 83.5073 9.192 83.5233 10.328H78.2433C77.9873 9.704 77.4113 9.224 76.5153 8.888C75.6193 8.536 74.4513 8.36 73.0113 8.36C71.8433 8.36 70.8273 8.448 69.9633 8.624C69.0993 8.784 68.4273 9.064 67.9473 9.464C67.4833 9.864 67.2513 10.424 67.2513 11.144C67.2513 11.848 67.4833 12.4 67.9473 12.8C68.4113 13.2 69.0753 13.48 69.9393 13.64C70.8033 13.8 71.8273 13.88 73.0113 13.88C74.4513 13.88 75.6193 13.712 76.5153 13.376C77.4273 13.024 78.0113 12.528 78.2673 11.888H83.5473ZM101.743 17V12.632C101.743 11.912 101.599 11.304 101.311 10.808C101.023 10.312 100.511 9.944 99.7746 9.704C99.0546 9.448 98.0306 9.32 96.7026 9.32C95.9506 9.32 95.2146 9.392 94.4946 9.536C93.7906 9.664 93.1506 9.824 92.5746 10.016C92.0146 10.208 91.5666 10.4 91.2306 10.592L91.1826 9.44C91.2466 9.2 91.4626 8.84 91.8306 8.36C92.2146 7.864 92.7666 7.352 93.4866 6.824C94.2066 6.28 95.1106 5.824 96.1986 5.456C97.3026 5.072 98.6066 4.88 100.111 4.88C101.055 4.88 101.967 4.968 102.847 5.144C103.727 5.32 104.511 5.616 105.199 6.032C105.903 6.432 106.463 6.976 106.879 7.664C107.295 8.352 107.503 9.208 107.503 10.232V17H101.743ZM85.7106 17V0.439999H91.4706V17H85.7106ZM120.818 17.36C118.274 17.36 116.154 17.152 114.458 16.736C112.778 16.32 111.514 15.656 110.666 14.744C109.834 13.832 109.418 12.632 109.418 11.144C109.418 9.656 109.834 8.456 110.666 7.544C111.514 6.616 112.778 5.944 114.458 5.528C116.154 5.096 118.274 4.88 120.818 4.88C123.346 4.88 125.442 5.096 127.106 5.528C128.786 5.944 130.042 6.616 130.874 7.544C131.706 8.456 132.122 9.656 132.122 11.144C132.122 12.632 131.706 13.832 130.874 14.744C130.042 15.656 128.786 16.32 127.106 16.736C125.442 17.152 123.346 17.36 120.818 17.36ZM120.818 13.88C122.002 13.88 122.994 13.784 123.794 13.592C124.594 13.384 125.202 13.08 125.618 12.68C126.034 12.264 126.242 11.752 126.242 11.144C126.242 10.536 126.034 10.024 125.618 9.608C125.218 9.192 124.618 8.88 123.818 8.672C123.018 8.464 122.018 8.36 120.818 8.36C119.634 8.36 118.626 8.464 117.794 8.672C116.978 8.88 116.354 9.192 115.922 9.608C115.506 10.008 115.298 10.52 115.298 11.144C115.298 11.752 115.506 12.264 115.922 12.68C116.338 13.08 116.954 13.384 117.77 13.592C118.602 13.784 119.618 13.88 120.818 13.88ZM133.913 12.776H139.217C139.441 13.192 139.865 13.48 140.489 13.64C141.129 13.8 142.041 13.88 143.225 13.88C144.137 13.88 144.809 13.832 145.241 13.736C145.689 13.64 145.977 13.512 146.105 13.352C146.249 13.192 146.321 13.024 146.321 12.848C146.321 12.576 146.169 12.392 145.865 12.296C145.577 12.184 145.081 12.12 144.377 12.104C143.673 12.072 142.705 12.056 141.473 12.056C140.305 12.056 139.257 12.008 138.329 11.912C137.417 11.8 136.641 11.632 136.001 11.408C135.361 11.168 134.873 10.84 134.537 10.424C134.201 10.008 134.033 9.488 134.033 8.864C134.033 8.096 134.281 7.456 134.777 6.944C135.273 6.416 135.945 6.008 136.793 5.72C137.641 5.416 138.617 5.2 139.721 5.072C140.841 4.944 142.009 4.88 143.225 4.88C145.241 4.88 146.889 5.088 148.169 5.504C149.449 5.904 150.393 6.448 151.001 7.136C151.609 7.824 151.905 8.6 151.889 9.464H146.729C146.553 9.048 146.217 8.76 145.721 8.6C145.241 8.44 144.409 8.36 143.225 8.36C142.105 8.36 141.289 8.448 140.777 8.624C140.281 8.784 140.033 9.048 140.033 9.416C140.033 9.656 140.153 9.84 140.393 9.968C140.649 10.08 141.121 10.16 141.809 10.208C142.513 10.256 143.537 10.28 144.881 10.28C145.809 10.28 146.713 10.312 147.593 10.376C148.489 10.44 149.289 10.576 149.993 10.784C150.713 10.992 151.281 11.312 151.697 11.744C152.113 12.176 152.321 12.768 152.321 13.52C152.321 14.432 151.945 15.176 151.193 15.752C150.457 16.312 149.409 16.72 148.049 16.976C146.689 17.232 145.081 17.36 143.225 17.36C141.609 17.36 140.241 17.256 139.121 17.048C138.017 16.84 137.113 16.568 136.409 16.232C135.705 15.88 135.161 15.504 134.777 15.104C134.409 14.688 134.161 14.28 134.033 13.88C133.921 13.464 133.881 13.096 133.913 12.776Z" fill="white"/>
</svg>
