<svg width="14" height="14" viewBox="0 0 14 14" fill="none" xmlns="http://www.w3.org/2000/svg">
<path d="M4.19967 0.333496H9.79967C11.933 0.333496 13.6663 2.06683 13.6663 4.20016V9.80016C13.6663 10.8257 13.259 11.8092 12.5338 12.5343C11.8087 13.2594 10.8252 13.6668 9.79967 13.6668H4.19967C2.06634 13.6668 0.333008 11.9335 0.333008 9.80016V4.20016C0.333008 3.17466 0.740388 2.19116 1.46553 1.46602C2.19067 0.740876 3.17417 0.333496 4.19967 0.333496ZM4.06634 1.66683C3.42982 1.66683 2.81937 1.91969 2.36928 2.36977C1.9192 2.81986 1.66634 3.43031 1.66634 4.06683V9.9335C1.66634 11.2602 2.73967 12.3335 4.06634 12.3335H9.93301C10.5695 12.3335 11.18 12.0806 11.6301 11.6306C12.0802 11.1805 12.333 10.57 12.333 9.9335V4.06683C12.333 2.74016 11.2597 1.66683 9.93301 1.66683H4.06634ZM10.4997 2.66683C10.7207 2.66683 10.9326 2.75463 11.0889 2.91091C11.2452 3.06719 11.333 3.27915 11.333 3.50016C11.333 3.72118 11.2452 3.93314 11.0889 4.08942C10.9326 4.2457 10.7207 4.3335 10.4997 4.3335C10.2787 4.3335 10.0667 4.2457 9.91042 4.08942C9.75414 3.93314 9.66634 3.72118 9.66634 3.50016C9.66634 3.27915 9.75414 3.06719 9.91042 2.91091C10.0667 2.75463 10.2787 2.66683 10.4997 2.66683ZM6.99967 3.66683C7.88373 3.66683 8.73158 4.01802 9.3567 4.64314C9.98182 5.26826 10.333 6.11611 10.333 7.00016C10.333 7.88422 9.98182 8.73206 9.3567 9.35718C8.73158 9.98231 7.88373 10.3335 6.99967 10.3335C6.11562 10.3335 5.26777 9.98231 4.64265 9.35718C4.01753 8.73206 3.66634 7.88422 3.66634 7.00016C3.66634 6.11611 4.01753 5.26826 4.64265 4.64314C5.26777 4.01802 6.11562 3.66683 6.99967 3.66683ZM6.99967 5.00016C6.46924 5.00016 5.96053 5.21088 5.58546 5.58595C5.21039 5.96102 4.99967 6.46973 4.99967 7.00016C4.99967 7.5306 5.21039 8.0393 5.58546 8.41438C5.96053 8.78945 6.46924 9.00016 6.99967 9.00016C7.53011 9.00016 8.03882 8.78945 8.41389 8.41438C8.78896 8.0393 8.99967 7.5306 8.99967 7.00016C8.99967 6.46973 8.78896 5.96102 8.41389 5.58595C8.03882 5.21088 7.53011 5.00016 6.99967 5.00016Z" fill="white"/>
</svg>
