<svg width="20" height="20" viewBox="0 0 20 20" fill="none" xmlns="http://www.w3.org/2000/svg">
<path d="M6.49935 1.66675H13.4993C16.166 1.66675 18.3327 3.83341 18.3327 6.50008V13.5001C18.3327 14.782 17.8235 16.0113 16.917 16.9178C16.0106 17.8242 14.7812 18.3334 13.4993 18.3334H6.49935C3.83268 18.3334 1.66602 16.1667 1.66602 13.5001V6.50008C1.66602 5.2182 2.17524 3.98882 3.08167 3.0824C3.98809 2.17597 5.21747 1.66675 6.49935 1.66675ZM6.33268 3.33341C5.53703 3.33341 4.77397 3.64948 4.21136 4.21209C3.64875 4.7747 3.33268 5.53776 3.33268 6.33341V13.6667C3.33268 15.3251 4.67435 16.6667 6.33268 16.6667H13.666C14.4617 16.6667 15.2247 16.3507 15.7873 15.7881C16.3499 15.2255 16.666 14.4624 16.666 13.6667V6.33341C16.666 4.67508 15.3243 3.33341 13.666 3.33341H6.33268ZM14.3743 4.58341C14.6506 4.58341 14.9156 4.69316 15.1109 4.88851C15.3063 5.08386 15.416 5.34881 15.416 5.62508C15.416 5.90135 15.3063 6.1663 15.1109 6.36165C14.9156 6.557 14.6506 6.66675 14.3743 6.66675C14.0981 6.66675 13.8331 6.557 13.6378 6.36165C13.4424 6.1663 13.3327 5.90135 13.3327 5.62508C13.3327 5.34881 13.4424 5.08386 13.6378 4.88851C13.8331 4.69316 14.0981 4.58341 14.3743 4.58341ZM9.99935 5.83341C11.1044 5.83341 12.1642 6.2724 12.9456 7.0538C13.727 7.8352 14.166 8.89501 14.166 10.0001C14.166 11.1051 13.727 12.165 12.9456 12.9464C12.1642 13.7278 11.1044 14.1667 9.99935 14.1667C8.89428 14.1667 7.83447 13.7278 7.05307 12.9464C6.27167 12.165 5.83268 11.1051 5.83268 10.0001C5.83268 8.89501 6.27167 7.8352 7.05307 7.0538C7.83447 6.2724 8.89428 5.83341 9.99935 5.83341ZM9.99935 7.50008C9.33631 7.50008 8.70042 7.76347 8.23158 8.23231C7.76274 8.70115 7.49935 9.33704 7.49935 10.0001C7.49935 10.6631 7.76274 11.299 8.23158 11.7678C8.70042 12.2367 9.33631 12.5001 9.99935 12.5001C10.6624 12.5001 11.2983 12.2367 11.7671 11.7678C12.236 11.299 12.4993 10.6631 12.4993 10.0001C12.4993 9.33704 12.236 8.70115 11.7671 8.23231C11.2983 7.76347 10.6624 7.50008 9.99935 7.50008Z" fill="white"/>
</svg>
