<svg width="20" height="20" viewBox="0 0 20 20" fill="none" xmlns="http://www.w3.org/2000/svg">
<path d="M8.33268 12.5001L12.6577 10.0001L8.33268 7.50008V12.5001ZM17.966 5.97508C18.0743 6.36675 18.1493 6.89175 18.1993 7.55842C18.2577 8.22508 18.2827 8.80008 18.2827 9.30008L18.3327 10.0001C18.3327 11.8251 18.1993 13.1668 17.966 14.0251C17.7577 14.7751 17.2743 15.2584 16.5243 15.4668C16.1327 15.5751 15.416 15.6501 14.316 15.7001C13.2327 15.7584 12.241 15.7834 11.3243 15.7834L9.99935 15.8334C6.50768 15.8334 4.33268 15.7001 3.47435 15.4668C2.72435 15.2584 2.24102 14.7751 2.03268 14.0251C1.92435 13.6334 1.84935 13.1084 1.79935 12.4418C1.74102 11.7751 1.71602 11.2001 1.71602 10.7001L1.66602 10.0001C1.66602 8.17508 1.79935 6.83342 2.03268 5.97508C2.24102 5.22508 2.72435 4.74175 3.47435 4.53341C3.86602 4.42508 4.58268 4.35008 5.68268 4.30008C6.76602 4.24175 7.75768 4.21675 8.67435 4.21675L9.99935 4.16675C13.491 4.16675 15.666 4.30008 16.5243 4.53341C17.2743 4.74175 17.7577 5.22508 17.966 5.97508Z" fill="white"/>
</svg>
